<svg width="31" height="31" viewBox="0 0 31 31" fill="none" xmlns="http://www.w3.org/2000/svg">
<g clip-path="url(#clip0_348_176)">
<g clip-path="url(#clip1_348_176)">
<g clip-path="url(#clip2_348_176)">
<path d="M27.0061 0.499146H4.14894C2.17751 0.499146 0.577515 2.09915 0.577515 4.07057V26.9277C0.577515 28.8991 2.17751 30.4991 4.14894 30.4991H27.0061C28.9775 30.4991 30.5775 28.8991 30.5775 26.9277V4.07057C30.5775 2.09915 28.9775 0.499146 27.0061 0.499146ZM9.86323 11.9277V25.4991H5.57751V11.9277H9.86323ZM5.57751 7.97772C5.57751 6.97772 6.43466 6.21343 7.72037 6.21343C9.00609 6.21343 9.81323 6.97772 9.86323 7.97772C9.86323 8.97772 9.06323 9.78486 7.72037 9.78486C6.43466 9.78486 5.57751 8.97772 5.57751 7.97772ZM25.5775 25.4991H21.2918C21.2918 25.4991 21.2918 18.8849 21.2918 18.3563C21.2918 16.9277 20.5775 15.4991 18.7918 15.4706H18.7347C17.0061 15.4706 16.2918 16.942 16.2918 18.3563C16.2918 19.0063 16.2918 25.4991 16.2918 25.4991H12.0061V11.9277H16.2918V13.7563C16.2918 13.7563 17.6704 11.9277 20.4418 11.9277C23.2775 11.9277 25.5775 13.8777 25.5775 17.8277V25.4991Z" fill="url(#paint0_linear_348_176)"/>
</g>
</g>
</g>
<defs>
<linearGradient id="paint0_linear_348_176" x1="0.577515" y1="15.4991" x2="30.5775" y2="15.4991" gradientUnits="userSpaceOnUse">
<stop stop-color="#7DCDFA"/>
<stop offset="1" stop-color="#F285BA"/>
</linearGradient>
<clipPath id="clip0_348_176">
<rect width="30.8452" height="30.8452" fill="white" transform="translate(0.154785 0.0773926)"/>
</clipPath>
<clipPath id="clip1_348_176">
<rect width="30.8452" height="30.8452" fill="white" transform="translate(0.154785 0.0773926)"/>
</clipPath>
<clipPath id="clip2_348_176">
<rect width="30" height="30" fill="white" transform="translate(0.577393 0.5)"/>
</clipPath>
</defs>
</svg>
