<svg width="30" height="31" viewBox="0 0 30 31" fill="none" xmlns="http://www.w3.org/2000/svg">
<g clip-path="url(#clip0_348_226)">
<path d="M25.9091 0.5H4.09091C1.83156 0.5 0 2.33156 0 4.59091V26.4091C0 28.6684 1.83156 30.5 4.09091 30.5H25.9091C28.1684 30.5 30 28.6684 30 26.4091V4.59091C30 2.33156 28.1684 0.5 25.9091 0.5Z" fill="url(#paint0_linear_348_226)"/>
<path d="M17.8057 10.3795H22.5051V11.5488H17.8057V10.3795Z" fill="#121212"/>
<path d="M24.375 16.9505C24.375 14.5096 22.4846 12.5306 20.1545 12.5306C17.8244 12.5306 15.9341 14.5096 15.9341 16.9505C15.9341 19.3914 17.6881 21.3687 20.1545 21.3687C22.0295 21.3687 23.6318 20.5437 24.1756 18.563H22.1966C22.0149 18.9021 21.7445 19.1854 21.4142 19.3827C21.0839 19.5799 20.7063 19.6837 20.3216 19.6829C19.2153 19.6829 18.242 18.8903 18.3 17.5573H24.3426C24.375 17.363 24.375 17.1619 24.375 16.9505ZM18.3068 16.0829C18.4534 14.9852 19.229 14.2846 20.1648 14.2846C21.1006 14.2846 21.8693 14.9852 22.0227 16.0829H18.3068Z" fill="#121212"/>
<path d="M15.2114 17.1363C15.058 15.442 13.142 14.871 13.142 14.871C13.8699 14.5301 14.7375 13.8329 14.729 12.2971C14.7153 10.0812 12.404 9.63123 11.6608 9.63123H5.625V21.1574H11.1085C11.8705 21.1574 12.6818 21.0568 13.3244 20.7363C15.058 19.8841 15.3614 18.8324 15.2114 17.1363ZM8.16136 11.6204H10.7557C10.7557 11.6204 12.2898 11.5846 12.2898 12.9415C12.2898 14.2983 10.7557 14.2608 10.7557 14.2608H8.16136V11.6204ZM10.9091 19.2005H8.16136V16.0488H10.9091C10.9091 16.0488 12.7364 16.0062 12.7364 17.6238C12.7364 19.2415 10.9091 19.2005 10.9091 19.2005Z" fill="#121212"/>
</g>
<defs>
<linearGradient id="paint0_linear_348_226" x1="15" y1="0.5" x2="15" y2="30.5" gradientUnits="userSpaceOnUse">
<stop stop-color="#7DCDFA"/>
<stop offset="1" stop-color="#F285BA"/>
</linearGradient>
<clipPath id="clip0_348_226">
<rect width="30" height="30" fill="white" transform="translate(0 0.5)"/>
</clipPath>
</defs>
</svg>
