<svg width="30" height="31" viewBox="0 0 30 31" fill="none" xmlns="http://www.w3.org/2000/svg">
<g clip-path="url(#clip0_348_213)">
<path d="M14.9981 0.812256C6.71625 0.812256 0 7.55476 0 15.8723C0 22.5248 4.2975 28.1685 10.26 30.1616C11.01 30.3004 11.2838 29.8354 11.2838 29.436C11.2838 29.0779 11.2706 28.131 11.2631 26.8748C7.09125 27.7841 6.21 24.8554 6.21 24.8554C5.52938 23.1154 4.545 22.6523 4.545 22.6523C3.18188 21.7185 4.64625 21.7373 4.64625 21.7373C6.15187 21.8441 6.94313 23.2898 6.94313 23.2898C8.28188 25.5904 10.455 24.9266 11.31 24.5404C11.445 23.5673 11.8331 22.9035 12.2625 22.5266C8.9325 22.146 5.43 20.8541 5.43 15.0848C5.43 13.4404 6.015 12.096 6.975 11.0423C6.81938 10.6616 6.30563 9.12976 7.12125 7.05788C7.12125 7.05788 8.38125 6.65288 11.2463 8.60101C12.4425 8.26726 13.725 8.10038 15.0019 8.09476C16.275 8.10226 17.5594 8.26726 18.7575 8.60288C21.6206 6.65476 22.8787 7.05976 22.8787 7.05976C23.6962 9.13351 23.1825 10.6635 23.0287 11.0441C23.9906 12.0979 24.57 13.4423 24.57 15.0866C24.57 20.871 21.0637 22.1441 17.7225 22.5173C18.2606 22.9823 18.7406 23.901 18.7406 25.3054C18.7406 27.3191 18.7219 28.9429 18.7219 29.436C18.7219 29.8391 18.9919 30.3079 19.7531 30.1598C25.7062 28.1648 30 22.5229 30 15.8723C30 7.55476 23.2838 0.812256 14.9981 0.812256Z" fill="url(#paint0_linear_348_213)"/>
</g>
<defs>
<linearGradient id="paint0_linear_348_213" x1="15" y1="0.812256" x2="15" y2="30.1877" gradientUnits="userSpaceOnUse">
<stop stop-color="#7DCDFA"/>
<stop offset="1" stop-color="#F285BA"/>
</linearGradient>
<clipPath id="clip0_348_213">
<rect width="30" height="30" fill="white" transform="translate(0 0.5)"/>
</clipPath>
</defs>
</svg>
