<svg width="36" height="36" viewBox="0 0 36 36" fill="none" xmlns="http://www.w3.org/2000/svg">
<path d="M9.216 17.589H10.5682C10.3447 17.7413 10.1317 17.9123 9.93675 18.1073C9.1185 18.9255 8.6685 20.0168 8.6685 21.18C8.6685 23.5733 10.6163 25.521 13.0095 25.521H14.793V26.7113C14.793 26.8808 14.907 27.0293 15.0712 27.0735C15.2347 27.1185 15.408 27.0458 15.4935 26.8988L16.914 24.438L18.3345 26.9055C18.4027 27.024 18.528 27.0938 18.66 27.0938C18.6922 27.0938 18.7245 27.09 18.7568 27.081C18.921 27.0375 19.035 26.889 19.035 26.7188V25.521H30.75C30.957 25.521 31.125 25.353 31.125 25.146V23.9393C31.125 23.8613 31.0958 23.793 31.0553 23.7338C31.0508 23.727 31.0522 23.718 31.0477 23.7113C30.489 22.9815 30.1935 22.1063 30.1935 21.18C30.1935 20.2538 30.489 19.3785 31.0477 18.6488C31.053 18.642 31.0508 18.633 31.0553 18.6263C31.0958 18.5663 31.125 18.498 31.125 18.4208V17.214C31.125 17.007 30.957 16.839 30.75 16.839H27.3315V16.0073C27.3315 15.9998 27.3278 15.993 27.327 15.9855C27.3263 15.9698 27.321 15.957 27.318 15.942C27.309 15.8918 27.291 15.8475 27.2648 15.8063C27.2595 15.798 27.2603 15.7875 27.2542 15.7793C26.6955 15.0495 26.4 14.1743 26.4 13.248C26.4 12.3218 26.6955 11.4465 27.2542 10.7168C27.2603 10.7085 27.2595 10.698 27.2648 10.6898C27.2917 10.6485 27.309 10.6043 27.318 10.554C27.321 10.539 27.3263 10.5255 27.327 10.5105C27.3278 10.503 27.3315 10.4963 27.3315 10.4888V9.28201C27.3315 9.07501 27.1635 8.90701 26.9565 8.90701H9.216C8.05275 8.90701 6.9615 9.35776 6.14325 10.1753C5.325 10.9928 4.875 12.084 4.875 13.248C4.875 15.6413 6.82275 17.589 9.216 17.589ZM19.0335 21.555H29.472C29.5253 22.2675 29.7248 22.947 30.0682 23.5643H19.0335V21.555ZM29.4728 20.805H18.6585H15.168H12.492C12.285 20.805 12.117 20.973 12.117 21.18C12.117 21.387 12.285 21.555 12.492 21.555H14.793V23.5643H13.14C11.8253 23.5643 10.7557 22.4948 10.7557 21.18C10.7557 20.5418 11.0032 19.9433 11.451 19.4948C11.9077 19.044 12.5077 18.7958 13.1392 18.7958H30.0675C29.7248 19.413 29.526 20.0918 29.4728 20.805ZM18.2835 25.3133L17.2372 23.502C17.1698 23.3865 17.0468 23.3153 16.9132 23.3153C16.7798 23.3153 16.6567 23.3858 16.5892 23.5013L15.5422 25.3118V25.146V23.9393V21.555H18.2828V23.9393V25.146L18.2835 25.3133ZM19.0335 24.771V24.3143H30.375V24.771H19.0335ZM30.375 18.0458H13.1407C12.3105 18.0458 11.5237 18.3705 10.9237 18.963C10.332 19.5548 10.0065 20.3415 10.0065 21.18C10.0065 22.908 11.4128 24.3143 13.1407 24.3143H14.7938V24.771H13.0103C11.0303 24.771 9.41925 23.16 9.41925 21.18C9.41925 20.217 9.792 19.3148 10.4677 18.6375C11.1442 17.961 12.0465 17.589 13.0103 17.589H26.9573H30.375V18.0458ZM25.6732 12.873H8.6985C8.4915 12.873 8.3235 13.041 8.3235 13.248C8.3235 13.455 8.4915 13.623 8.6985 13.623H25.6732C25.7265 14.3348 25.92 15.0158 26.2627 15.6323H9.34725C8.0325 15.6323 6.963 14.5628 6.963 13.248C6.963 12.6098 7.2105 12.0113 7.65825 11.5628C8.115 11.112 8.715 10.8638 9.3465 10.8638H26.262C25.92 11.4795 25.7265 12.1613 25.6732 12.873ZM6.6735 10.7055C7.35 10.029 8.25225 9.65701 9.216 9.65701H26.5815V10.1138H9.34725C8.517 10.1138 7.73025 10.4385 7.13025 11.031C6.5385 11.6228 6.213 12.4095 6.213 13.248C6.213 14.976 7.61925 16.3823 9.34725 16.3823H26.5815V16.839H13.0095H9.216C7.236 16.839 5.625 15.228 5.625 13.248C5.625 12.2843 5.99775 11.382 6.6735 10.7055Z" fill="url(#paint0_linear_34_142)"/>
<defs>
<linearGradient id="paint0_linear_34_142" x1="10.5248" y1="18.0004" x2="31.125" y2="18.0004" gradientUnits="userSpaceOnUse">
<stop stop-color="#7DCDFA"/>
<stop offset="1" stop-color="#F285BA"/>
</linearGradient>
</defs>
</svg>
