<svg width="28" height="28" viewBox="0 0 28 28" fill="none" xmlns="http://www.w3.org/2000/svg">
<g clip-path="url(#clip0_30_58)">
<path d="M0.466667 20.5333C0.209067 20.5333 0 20.7424 0 21C0 22.7603 1.2068 24.2667 2.8 24.2667H25.2C26.7932 24.2667 28 22.7603 28 21C28 20.7424 27.7909 20.5333 27.5333 20.5333H0.466667ZM1.09013 21.4667H26.9099C26.712 22.526 26.0531 23.3333 25.2 23.3333H2.8C1.94693 23.3333 1.288 22.526 1.09013 21.4667ZM5.13333 5.6C4.36613 5.6 3.73333 6.2328 3.73333 7V19.1333C3.73333 19.3909 3.9424 19.6 4.2 19.6H23.8C24.0576 19.6 24.2667 19.3909 24.2667 19.1333V7C24.2667 6.2328 23.6339 5.6 22.8667 5.6H5.13333ZM5.13333 6.53334H22.8667C23.1336 6.53334 23.3333 6.73307 23.3333 7V18.6667H4.66667V7C4.66667 6.73307 4.8664 6.53334 5.13333 6.53334ZM4.2 3.73334C2.91573 3.73334 1.86667 4.7824 1.86667 6.06667V19.1333C1.85733 19.7643 2.80933 19.7643 2.8 19.1333V6.06667C2.8 5.28267 3.416 4.66667 4.2 4.66667H23.8C24.584 4.66667 25.2 5.28267 25.2 6.06667V19.1333C25.1907 19.7643 26.1427 19.7643 26.1333 19.1333V6.06667C26.1333 4.7824 25.0843 3.73334 23.8 3.73334H4.2Z" fill="url(#paint0_linear_30_58)"/>
</g>
<defs>
<linearGradient id="paint0_linear_30_58" x1="6.02649" y1="14" x2="28" y2="14" gradientUnits="userSpaceOnUse">
<stop stop-color="#7DCDFA"/>
<stop offset="1" stop-color="#F285BA"/>
</linearGradient>
<clipPath id="clip0_30_58">
<rect width="28" height="28" fill="white"/>
</clipPath>
</defs>
</svg>
