<svg width="32" height="31" viewBox="0 0 32 31" fill="none" xmlns="http://www.w3.org/2000/svg">
<g clip-path="url(#clip0_34_193)">
<path d="M20.4736 0L25.7013 2.76725L21.7038 3.99747L20.4736 0Z" fill="url(#paint0_linear_34_193)"/>
<path d="M18.5082 18.2447C18.375 18.1463 18.1579 18.0971 17.854 18.0971H17.676V19.3346H17.841C18.155 19.3346 18.3779 19.2868 18.5096 19.1927C18.6413 19.0972 18.7064 18.9409 18.7064 18.7209C18.7064 18.5009 18.6399 18.3446 18.5082 18.2447Z" fill="url(#paint1_linear_34_193)"/>
<path d="M12.9404 18.1898C12.5409 18.1898 12.2153 18.3186 11.9635 18.5733C11.7102 18.828 11.5828 19.1508 11.5828 19.5415C11.5828 19.9323 11.7102 20.2435 11.9664 20.4982C12.2211 20.7529 12.5467 20.8803 12.9404 20.8803C13.3341 20.8803 13.6554 20.7529 13.9101 20.4968C14.1648 20.242 14.2907 19.9236 14.2907 19.5415C14.2907 19.1595 14.1634 18.8367 13.9072 18.5791C13.6525 18.32 13.3297 18.1912 12.939 18.1912L12.9404 18.1898Z" fill="url(#paint2_linear_34_193)"/>
<path d="M30.4441 18.184H29.0808V22.0309L27.7811 23.319V18.184H26.7694V17.0406H30.091L25.9155 3.46483L21.2219 4.90924L19.7789 0.214172L0 6.29721L7.52745 30.7698L32 23.2423L30.4441 18.184ZM24.9936 17.0406H26.2904V22.0309H24.9936V17.0406ZM10.1196 18.184H9.10791V23.319L7.80823 22.0309V18.184H6.79077L5.58806 17.0406H10.1196V18.184ZM14.8653 21.3897C14.3472 21.8876 13.706 22.1366 12.9404 22.1366C12.1748 22.1366 11.5307 21.8876 11.0126 21.3897C10.4944 20.8919 10.2354 20.2768 10.2354 19.5415C10.2354 18.8063 10.4959 18.1912 11.0155 17.6875C11.5365 17.1839 12.1777 16.932 12.9404 16.932C13.7031 16.932 14.3472 17.1839 14.8653 17.6861C15.3834 18.1883 15.6425 18.8063 15.6425 19.5415C15.6425 20.2768 15.3834 20.8919 14.8653 21.3897ZM17.8858 20.394H17.676V22.0295H16.3763V17.0391H17.8279C18.5979 17.0391 19.1609 17.1795 19.5199 17.4574C19.8788 17.7367 20.0583 18.1637 20.0583 18.7397C20.0583 19.3158 19.8744 19.6993 19.5083 19.9772C19.1421 20.2565 18.6008 20.394 17.8858 20.394ZM24.3047 18.7195C24.1541 18.5516 23.9747 18.4213 23.7663 18.3287C23.5578 18.2361 23.3422 18.1897 23.1179 18.1897C22.7184 18.1897 22.3957 18.3171 22.1496 18.5689C21.9021 18.8222 21.7791 19.1551 21.7791 19.5661C21.7791 19.9497 21.9036 20.2637 22.154 20.5098C22.4043 20.7544 22.7256 20.8774 23.1179 20.8774C23.335 20.8774 23.5506 20.8296 23.7634 20.737C23.9747 20.6444 24.1556 20.5141 24.3047 20.3477V21.8254C24.1455 21.9267 23.953 22.0034 23.7272 22.057C23.5028 22.1091 23.2525 22.1366 22.9789 22.1366C22.2466 22.1366 21.6387 21.8905 21.1568 21.3999C20.6748 20.9092 20.4331 20.2898 20.4331 19.5415C20.4331 18.7933 20.6748 18.1724 21.1582 17.6774C21.6416 17.181 22.248 16.9335 22.9789 16.9335C23.2597 16.9335 23.5101 16.9595 23.7315 17.0116C23.953 17.0637 24.144 17.1404 24.3032 17.2447V18.7224L24.3047 18.7195Z" fill="url(#paint3_linear_34_193)"/>
<path d="M6.78932 18.184H7.80823V22.0309L9.10646 23.319V18.184H10.1181V17.0406H5.58661L6.78932 18.184Z" fill="white"/>
<path d="M26.7694 18.184H27.7811V23.319L29.0808 22.0309V18.184H30.4441L30.091 17.0406H26.7694V18.184Z" fill="white"/>
<path d="M12.9404 16.9335C12.1776 16.9335 11.5365 17.1853 11.0155 17.689C10.4959 18.1926 10.2354 18.8092 10.2354 19.543C10.2354 20.2768 10.4944 20.8933 11.0126 21.3912C11.5307 21.8891 12.1733 22.138 12.9404 22.138C13.7074 22.138 14.3472 21.8891 14.8653 21.3912C15.3834 20.8933 15.6425 20.2782 15.6425 19.543C15.6425 18.8077 15.3834 18.1897 14.8653 17.6875C14.3472 17.1853 13.706 16.9335 12.9404 16.9335ZM13.9101 20.4967C13.6553 20.7529 13.3326 20.8803 12.9404 20.8803C12.5482 20.8803 12.2211 20.7529 11.9663 20.4982C11.7102 20.2435 11.5828 19.9251 11.5828 19.5415C11.5828 19.158 11.7087 18.8294 11.9634 18.5733C12.2167 18.3185 12.5424 18.1897 12.9404 18.1897C13.3384 18.1897 13.6539 18.3185 13.9086 18.5776C14.1633 18.8367 14.2922 19.1565 14.2922 19.5401C14.2922 19.9236 14.1648 20.2391 13.9115 20.4953L13.9101 20.4967Z" fill="white"/>
<path d="M20.0582 18.7397C20.0582 18.1637 19.8788 17.7367 19.5198 17.4574C19.1609 17.1795 18.5979 17.0391 17.8279 17.0391H16.3763V22.0294H17.676V20.394H17.8858C18.6008 20.394 19.1421 20.255 19.5083 19.9772C19.8744 19.6993 20.0582 19.2868 20.0582 18.7397ZM18.5096 19.1913C18.3779 19.2868 18.155 19.3331 17.841 19.3331H17.676V18.0957H17.854C18.1579 18.0957 18.3765 18.1449 18.5082 18.2433C18.6413 18.3431 18.7064 18.5009 18.7064 18.7194C18.7064 18.938 18.6413 19.0957 18.5096 19.1913Z" fill="white"/>
<path d="M22.9789 16.9335C22.248 16.9335 21.6416 17.181 21.1582 17.6774C20.6748 18.1724 20.4331 18.7947 20.4331 19.5415C20.4331 20.2884 20.6748 20.9093 21.1568 21.3999C21.6387 21.892 22.2466 22.1366 22.9789 22.1366C23.2525 22.1366 23.5028 22.1105 23.7272 22.057C23.953 22.0034 24.144 21.9267 24.3047 21.8254V20.3477C24.1556 20.5127 23.9761 20.6444 23.7634 20.737C23.5506 20.8311 23.335 20.8774 23.1179 20.8774C22.7256 20.8774 22.4043 20.7544 22.154 20.5098C21.9036 20.2638 21.7791 19.9497 21.7791 19.5662C21.7791 19.1551 21.9021 18.8222 22.1496 18.569C22.3957 18.3157 22.7184 18.1898 23.1179 18.1898C23.3422 18.1898 23.5578 18.2361 23.7663 18.3287C23.9747 18.4213 24.1527 18.5516 24.3047 18.7195V17.2418C24.1455 17.1376 23.9544 17.0609 23.733 17.0088C23.5115 16.9581 23.2597 16.9306 22.9804 16.9306L22.9789 16.9335Z" fill="white"/>
<path d="M26.2904 17.0406H24.9936V22.0309H26.2904V17.0406Z" fill="white"/>
</g>
<defs>
<linearGradient id="paint0_linear_34_193" x1="23.9964" y1="-0.403799" x2="21.7936" y2="3.92944" gradientUnits="userSpaceOnUse">
<stop stop-color="#999178"/>
<stop offset="1" stop-color="#D8D1C0"/>
</linearGradient>
<linearGradient id="paint1_linear_34_193" x1="-0.416852" y1="8.80828" x2="30.4137" y2="25.4306" gradientUnits="userSpaceOnUse">
<stop stop-color="#9E0B0F"/>
<stop offset="1" stop-color="#CE181E"/>
</linearGradient>
<linearGradient id="paint2_linear_34_193" x1="-1.89307" y1="11.5408" x2="28.9419" y2="28.1661" gradientUnits="userSpaceOnUse">
<stop stop-color="#9E0B0F"/>
<stop offset="1" stop-color="#CE181E"/>
</linearGradient>
<linearGradient id="paint3_linear_34_193" x1="-0.0289463" y1="8.08464" x2="30.8045" y2="24.7099" gradientUnits="userSpaceOnUse">
<stop stop-color="#9E0B0F"/>
<stop offset="1" stop-color="#CE181E"/>
</linearGradient>
<clipPath id="clip0_34_193">
<rect width="32" height="30.7698" fill="white"/>
</clipPath>
</defs>
</svg>
