<?xml version="1.0" encoding="UTF-8"?>
<svg version="1.1" xmlns="http://www.w3.org/2000/svg" width="48" height="48">
<path d="M0 0 C2.84910375 0.38056621 4.33100859 1.05751861 6.1640625 3.2890625 C6.1640625 4.6090625 6.1640625 5.9290625 6.1640625 7.2890625 C3.8540625 7.2890625 1.5440625 7.2890625 -0.8359375 7.2890625 C-0.8359375 6.6290625 -0.8359375 5.9690625 -0.8359375 5.2890625 C-1.8259375 6.2790625 -2.8159375 7.2690625 -3.8359375 8.2890625 C-3.20945312 8.47082031 -2.58296875 8.65257812 -1.9375 8.83984375 C-1.12023438 9.09121094 -0.30296875 9.34257812 0.5390625 9.6015625 C1.35117188 9.84519531 2.16328125 10.08882812 3 10.33984375 C5.1640625 11.2890625 5.1640625 11.2890625 7.1640625 14.2890625 C7.1015625 17.7890625 7.1015625 17.7890625 6.1640625 21.2890625 C3.48093359 23.6655481 1.70648092 24.2212602 -1.8359375 24.6640625 C-5.30971194 24.2298407 -7.13998228 23.52285396 -9.8359375 21.2890625 C-10.6484375 18.6015625 -10.6484375 18.6015625 -10.8359375 16.2890625 C-8.5259375 16.2890625 -6.2159375 16.2890625 -3.8359375 16.2890625 C-3.8359375 16.9490625 -3.8359375 17.6090625 -3.8359375 18.2890625 C-2.5159375 18.2890625 -1.1959375 18.2890625 0.1640625 18.2890625 C-1.7312292 16.07788885 -3.23187654 15.09513317 -5.8984375 13.7890625 C-8.8359375 12.2890625 -8.8359375 12.2890625 -10.8359375 9.2890625 C-10.64504788 6.2348286 -10.44719622 4.08782389 -8.5625 1.625 C-5.81339411 -0.50213624 -3.35846004 -0.1203357 0 0 Z " fill="#82C9F7" transform="translate(11.8359375,11.7109375)"/>
<path d="M0 0 C1.98 0 3.96 0 6 0 C6 5.94 6 11.88 6 18 C8.97 18 11.94 18 15 18 C15 19.65 15 21.3 15 23 C10.05 23 5.1 23 0 23 C0 15.41 0 7.82 0 0 Z " fill="#AEAEDE" transform="translate(22,12)"/>
<path d="M0 0 C1.98 0 3.96 0 6 0 C6 7.59 6 15.18 6 23 C4.02 23 2.04 23 0 23 C0 15.41 0 7.82 0 0 Z " fill="#DF90C4" transform="translate(40,12)"/>
</svg>
