<svg width="28" height="28" viewBox="0 0 28 28" fill="none" xmlns="http://www.w3.org/2000/svg">
<path d="M23.4527 15.9441C23.2695 15.6215 22.8566 15.5121 22.5367 15.698C22.2141 15.8812 22.1047 16.2941 22.2879 16.6141C24.109 19.7832 24.5684 22.4273 23.4855 23.5102C21.4156 25.5828 14.9652 22.0199 10.4699 17.5246C9.33516 16.3898 8.31524 15.2086 7.42656 14.0273C8.33985 12.7941 9.37617 11.5883 10.4699 10.4945C14.9625 6.00195 21.4129 2.44179 23.4855 4.51171C24.3305 5.35664 24.243 7.18046 23.2422 9.51562C22.1457 12.075 20.1059 14.9215 17.5 17.5273C16.8902 18.1371 16.2586 18.725 15.6215 19.2719C15.3398 19.5125 15.3098 19.9391 15.5504 20.218C15.7938 20.4996 16.2176 20.5297 16.4965 20.2891C17.1582 19.7203 17.8145 19.1078 18.4488 18.4762C21.1723 15.7527 23.3133 12.7586 24.4754 10.0461C25.7223 7.13945 25.7059 4.8371 24.4344 3.56562C21.9297 1.06093 15.3781 3.6914 9.5211 9.55117C8.43008 10.6422 7.45117 11.7578 6.59531 12.8652C5.82695 11.725 5.18984 10.5957 4.72774 9.51836C3.72695 7.18593 3.63945 5.36211 4.48438 4.51445C5.56719 3.43164 8.20586 3.88828 11.375 5.70664C11.6949 5.88984 12.1078 5.78046 12.291 5.45781C12.4742 5.13515 12.3648 4.725 12.0422 4.54179C8.21406 2.34609 5.11328 1.98789 3.53555 3.56562C2.26133 4.83984 2.24766 7.13945 3.49453 10.0461C4.04141 11.3258 4.8125 12.6656 5.75313 14.0109C2.66602 18.4352 1.65977 22.5832 3.53555 24.459C4.18633 25.1098 5.09414 25.4297 6.2043 25.4297C7.80938 25.4297 9.83828 24.757 12.1242 23.4336C12.4441 23.2477 12.5535 22.8375 12.3676 22.5148C12.1816 22.1949 11.7715 22.0855 11.4488 22.2715C8.24688 24.1309 5.57813 24.6039 4.48438 23.5102C3.07344 22.0992 4.2793 18.6539 6.61172 15.1785C7.47578 16.2969 8.45195 17.407 9.51836 18.4734C12.2418 21.1969 15.2359 23.3352 17.9512 24.5C19.3867 25.1152 20.6773 25.4242 21.7684 25.4242C22.884 25.4242 23.7891 25.1016 24.4344 24.459C26.0121 22.8812 25.6539 19.7777 23.4527 15.9441ZM13.9863 11.7715C12.7504 11.7715 11.7469 12.775 11.7469 14.0109C11.7469 15.2469 12.7504 16.2504 13.9863 16.2504C15.2223 16.2504 16.2258 15.2469 16.2258 14.0109C16.223 12.775 15.2223 11.7715 13.9863 11.7715Z" fill="url(#paint0_linear_30_46)"/>
<defs>
<linearGradient id="paint0_linear_30_46" x1="7.48447" y1="14.0121" x2="25.4051" y2="14.0121" gradientUnits="userSpaceOnUse">
<stop stop-color="#7DCDFA"/>
<stop offset="1" stop-color="#F285BA"/>
</linearGradient>
</defs>
</svg>
